<svg width="256" height="256" viewBox="0 0 256 256" fill="none" xmlns="http://www.w3.org/2000/svg">
  <rect width="256" height="256" rx="56" fill="#101826"/>
  <path d="M64 164C64 117.608 101.608 80 148 80H176V108H148C117.072 108 92 133.072 92 164V176H64V164Z" fill="#FF6A3D"/>
  <path d="M176 80C191.464 80 204 92.536 204 108C204 123.464 191.464 136 176 136C160.536 136 148 123.464 148 108C148 92.536 160.536 80 176 80Z" fill="#FFF8F4"/>
  <path d="M60 188H138C169.48 188 195 162.48 195 131V124" stroke="#14646D" stroke-width="22" stroke-linecap="round"/>
  <path d="M72 68L100 96" stroke="#FFF8F4" stroke-width="18" stroke-linecap="round"/>
  <path d="M58 96L86 68" stroke="#FFF8F4" stroke-width="18" stroke-linecap="round"/>
</svg>
